<svg width="150" height="140" xmlns="http://www.w3.org/2000/svg" fill="none">
 <g id="Layer_1">
  <title>Layer 1</title>
  <ellipse stroke="null" ry="62.49999" rx="65.5" id="svg_41" cy="64.7" cx="71.50001" fill="#ffffff"/>
  <g stroke="null" id="svg_40">
   <g stroke="null" id="svg_4" fill="#000000" transform="translate(0 221) scale(0.1 -0.1)">
    <path stroke="null" id="svg_5" d="m623.85106,2018.11383c-9.1597,-8.51555 -9.1597,-9.41193 -2.89254,-20.6166c4.3388,-6.72281 10.60596,-8.51555 30.37162,-8.51555c30.37162,0 43.38803,7.17099 40.97759,22.85754c-1.44627,9.86011 -3.85671,10.75649 -30.85371,12.10105c-22.17611,0.89637 -31.81789,-0.44819 -37.60296,-5.82643z"/>
    <path stroke="null" id="svg_6" d="m717.37637,2018.11383c-12.05223,-13.44561 6.74925,-33.16584 25.55073,-26.44303c19.76566,6.72281 12.53432,33.16584 -8.67761,33.16584c-5.78507,0 -13.4985,-3.13731 -16.87312,-6.72281z"/>
    <path stroke="null" id="svg_7" d="m781.97633,2016.76927c-16.87312,-10.3083 -8.19552,-32.26947 12.53432,-32.26947c11.57014,0 14.94477,2.24094 17.35521,12.10105c4.82089,16.58292 -14.94477,29.58034 -29.88953,20.16842z"/>
    <path stroke="null" id="svg_8" d="m569.37497,2011.39103c-13.01641,-4.93006 -14.46268,-18.82385 -3.37462,-28.68397c9.64179,-8.96374 13.01641,-8.96374 26.51491,1.34456c10.60596,8.06737 10.60596,8.51555 2.89254,20.16842c-9.1597,12.54924 -10.12387,12.99742 -26.03282,7.17099z"/>
    <path stroke="null" id="svg_9" d="m906.35536,1970.15782c-8.19552,-7.61918 -7.23134,-14.34198 3.37462,-23.30573c11.57014,-9.41193 27.47909,-6.27462 31.81789,6.72281c6.26716,17.47929 -20.72984,30.02853 -35.19252,16.58292z"/>
    <path stroke="null" id="svg_10" d="m441.62132,1961.64227c-17.8373,-9.41193 -4.3388,-37.19952 15.42686,-32.26947c14.94477,3.5855 20.24775,16.13473 11.57014,27.33941c-8.19552,10.75649 -14.46268,12.10105 -26.997,4.93006z"/>
    <path stroke="null" id="svg_11" d="m959.38518,1943.2666c-10.60596,-9.86011 -5.78507,-21.06479 16.39103,-37.19952c26.03282,-18.37567 32.29998,-19.27204 42.42385,-6.27462c9.1597,12.54924 6.26716,17.92748 -18.80148,34.95859c-22.65819,15.23836 -30.85371,17.03111 -40.01341,8.51555z"/>
    <path stroke="null" id="svg_12" d="m701.46743,1939.23292c-12.53432,-6.72281 -22.65819,-28.23578 -22.65819,-48.4042c0,-18.37567 3.37462,-37.64771 20.24775,-106.22032c5.30298,-22.85754 9.1597,-43.47414 7.71343,-46.61145c-0.96418,-3.13731 -8.19552,-0.89637 -19.76566,6.27462c-22.65819,14.34198 -32.78207,14.34198 -84.84771,0c-36.15669,-10.3083 -44.8343,-14.79017 -67.97458,-35.85496c-14.94477,-13.44561 -29.40744,-24.2021 -32.78207,-24.2021c-10.60596,0 -16.87312,-19.72023 -11.57014,-36.75134c2.41045,-8.96374 3.85671,-25.09847 2.41045,-36.30315l-2.41045,-19.72023l51.10146,-51.09332c28.44327,-28.23578 57.85071,-60.95344 65.56414,-73.50267c17.35521,-27.7876 34.71043,-45.26689 63.63578,-63.19437c21.21193,-13.8938 21.69402,-14.79017 26.997,-47.05964c3.85671,-26.44303 3.37462,-44.8187 -3.37462,-90.08559c-4.3388,-30.9249 -7.23134,-58.7125 -6.26716,-61.40162c0.96418,-3.13731 27.96118,-4.93006 80.5089,-4.93006c67.01041,0 79.06264,0.89637 81.47308,7.17099c1.44627,4.03368 2.89254,77.08817 2.89254,162.2437c0,165.8292 6.26716,242.91737 24.10446,304.76718c5.30298,17.92748 9.64179,38.99227 9.64179,47.05964c0,15.23836 9.1597,48.85239 19.76566,73.50267c5.78507,12.99742 5.30298,15.68655 -1.92836,22.40935c-7.71343,7.61918 -9.1597,7.17099 -25.06864,-0.44819c-12.53432,-6.27462 -20.72984,-16.13473 -30.85371,-35.40677l-13.4985,-26.44303l-3.85671,55.57519c-1.92836,36.30315 -1.44627,61.84981 1.92836,73.95086c2.89254,9.86011 3.85671,21.51298 2.41045,25.54666c-7.71343,18.37567 -40.97759,10.3083 -56.40444,-13.8938c-4.82089,-8.06737 -10.12387,-27.7876 -11.57014,-46.61145l-2.89254,-32.26947l-8.19552,15.23836c-9.64179,17.03111 -24.10446,66.77987 -24.10446,82.01823c0,9.86011 -12.05223,29.58034 -18.31939,29.58034c-1.92836,0 -7.23134,-2.24094 -12.05223,-4.93006zm22.65819,-76.63998c4.3388,-14.34198 15.90895,-41.68139 26.03282,-60.50525c10.12387,-19.27204 25.55073,-51.54151 34.71043,-72.15811c16.39103,-38.99227 21.69402,-45.26689 29.88953,-37.64771c3.85671,3.5855 0,16.58292 -12.53432,45.26689l-17.8373,40.33683l3.37462,50.64513c2.89254,46.61145 9.64179,70.81355 20.24775,70.81355c1.92836,0 3.37462,-27.7876 3.85671,-61.84981c0,-33.61403 2.89254,-78.43273 6.74925,-99.49752c3.37462,-21.06479 7.23134,-47.05964 9.1597,-58.26431c2.41045,-14.79017 5.30298,-20.6166 12.05223,-21.51298c8.19552,-1.79275 8.67761,0.44819 6.26716,26.44303c-2.41045,23.75391 -0.96418,34.95859 9.1597,63.19437c6.74925,19.27204 16.87312,39.44046 22.17611,44.8187c8.67761,9.41193 9.1597,9.41193 6.26716,1.34456c-8.67761,-23.30573 -16.87312,-57.81613 -16.87312,-69.46899c0,-6.72281 -5.30298,-31.37309 -11.57014,-54.67882c-16.87312,-60.95344 -24.58655,-137.14523 -25.06864,-243.36555c0,-51.98969 -0.96418,-119.66594 -0.96418,-151.03903l-0.96418,-57.36794l-60.26116,0c-33.26416,0 -60.26116,0.44819 -60.26116,1.34456c0,0.44819 3.37462,24.65029 7.23134,53.78244c5.78507,42.57777 5.78507,60.05706 1.44627,87.39647c-5.78507,37.19952 -8.67761,41.23321 -52.06564,69.91718c-13.01641,8.51555 -27.47909,24.2021 -37.12087,40.33683c-8.67761,13.8938 -37.12087,47.05964 -63.63578,73.50267c-46.28057,46.16326 -47.72684,47.50782 -40.4955,57.81613c6.74925,9.41193 6.74925,11.20468 0,16.13473c-7.23134,4.93006 -19.76566,43.47414 -15.42686,47.50782c1.44627,0.89637 7.71343,-1.79275 14.46268,-5.82643c9.1597,-5.82643 11.57014,-9.86011 9.64179,-16.58292c-2.41045,-6.72281 -0.48209,-9.86011 7.23134,-11.65286c8.19552,-2.24094 9.64179,-4.93006 7.23134,-15.23836c-2.89254,-11.65286 -1.92836,-12.99742 9.1597,-12.99742c7.71343,0 20.24775,-6.27462 31.3358,-15.68655c22.65819,-19.27204 40.4955,-20.16842 75.20592,-4.93006c32.29998,13.8938 47.72684,30.47672 48.69101,51.09332c0.48209,8.96374 -1.92836,17.92748 -4.82089,19.72023c-2.89254,1.79275 -5.30298,6.72281 -5.30298,11.20468c0,4.93006 -5.30298,8.51555 -15.90895,10.75649c-21.69402,4.03368 -26.51491,9.41193 -29.40744,31.82128c-3.37462,23.75391 -16.39103,26.89122 -18.80148,4.93006c-1.44627,-11.65286 -3.85671,-14.79017 -16.39103,-17.03111c-11.08805,-2.68912 -16.87312,-0.89637 -24.58655,5.82643c-5.30298,4.93006 -8.19552,12.10105 -6.74925,15.23836c2.41045,5.82643 52.06564,21.51298 68.45667,21.51298c8.19552,0 40.97759,-20.16842 88.22233,-54.67882c27.96118,-20.16842 44.35221,-25.09847 44.35221,-12.99742c0,2.68912 -12.05223,12.99742 -26.51491,23.30573c-27.47909,19.27204 -31.3358,26.44303 -40.97759,75.29542c-2.41045,11.65286 -6.26716,28.68397 -8.67761,38.54408c-15.42686,59.16069 -18.31939,91.87834 -9.64179,106.66851c5.78507,9.41193 6.26716,8.96374 9.1597,-8.06737c1.92836,-9.86011 6.74925,-29.58034 11.08805,-43.47414zm-146.55513,-171.65563c0,-8.06737 -27.96118,-21.06479 -39.04923,-17.92748c-9.64179,3.13731 -9.1597,4.03368 8.19552,20.6166c16.87312,16.13473 19.28357,17.03111 24.58655,9.86011c3.37462,-4.03368 6.26716,-9.86011 6.26716,-12.54924zm67.4925,-16.13473c0,-2.24094 8.67761,-8.06737 19.28357,-12.99742c41.94176,-19.72023 24.10446,-56.47156 -35.6746,-72.15811c-13.01641,-3.5855 -16.39103,-1.79275 -39.04923,19.72023c-24.58655,23.30573 -37.12087,43.92233 -27.96118,46.61145c2.41045,0.89637 11.57014,5.82643 20.24775,11.65286c15.90895,9.86011 63.15369,15.23836 63.15369,7.17099z"/>
    <path stroke="null" id="svg_13" d="m387.62733,1925.7873c-7.71343,-10.75649 -5.78507,-20.16842 6.74925,-26.44303c10.12387,-4.93006 28.92536,5.82643 28.92536,17.47929c0,18.37567 -23.62237,24.65029 -35.6746,8.96374z"/>
    <path stroke="null" id="svg_14" d="m332.18706,1879.17585c-20.72984,-21.06479 -23.62237,-28.23578 -13.98059,-37.19952c10.12387,-9.41193 22.17611,-5.82643 41.94176,13.8938c21.69402,20.6166 23.62237,25.99485 12.05223,36.30315c-11.57014,11.20468 -18.31939,8.96374 -40.01341,-12.99742z"/>
    <path stroke="null" id="svg_15" d="m1030.73439,1883.65772c-4.82089,-5.37824 -4.82089,-9.41193 -0.96418,-17.92748c6.74925,-13.8938 26.997,-15.23836 34.71043,-2.68912c6.26716,11.20468 6.26716,12.10105 -2.89254,20.16842c-9.64179,8.96374 -23.14028,8.96374 -30.85371,0.44819z"/>
    <path stroke="null" id="svg_16" d="m1072.19406,1842.87271c-10.12387,-8.96374 -9.64179,-16.58292 0.96418,-25.54666c11.57014,-9.86011 16.87312,-9.41193 27.47909,1.34456c8.19552,8.06737 8.19552,9.41193 0.48209,20.16842c-9.1597,12.99742 -18.31939,14.34198 -28.92536,4.03368z"/>
    <path stroke="null" id="svg_17" d="m283.49605,1820.91154c-12.53432,-14.34198 6.26716,-36.30315 23.14028,-26.44303c16.39103,9.86011 10.60596,33.16584 -8.67761,33.16584c-4.82089,0 -11.08805,-3.13731 -14.46268,-6.72281z"/>
    <path stroke="null" id="svg_18" d="m1136.79402,1731.27414c-7.23134,-8.06737 -2.89254,-27.33941 7.71343,-30.9249c9.64179,-3.5855 26.03282,4.93006 26.03282,13.44561c0,20.6166 -21.21193,31.37309 -33.74625,17.47929z"/>
    <path stroke="null" id="svg_19" d="m226.60952,1710.20935c-14.94477,-13.8938 1.44627,-38.99227 20.24775,-32.26947c12.53432,4.48187 15.42686,24.65029 5.30298,31.82128c-11.08805,7.17099 -17.8373,7.61918 -25.55073,0.44819z"/>
    <path stroke="null" id="svg_20" d="m1151.2567,1677.49169c-4.3388,-4.93006 -4.3388,-12.54924 0.96418,-34.5104c5.78507,-25.09847 7.71343,-28.23578 18.80148,-29.58034c20.24775,-2.24094 25.55073,8.06737 18.80148,38.0959c-3.37462,14.34198 -8.19552,27.33941 -11.57014,29.13216c-8.67761,5.37824 -20.72984,4.03368 -26.997,-3.13731z"/>
    <path stroke="null" id="svg_21" d="m214.0752,1654.63416c-11.57014,-10.3083 -9.64179,-23.75391 4.3388,-29.58034c9.1597,-3.5855 13.4985,-3.5855 19.28357,0.89637c10.12387,8.06737 9.1597,25.54666 -1.92836,31.37309c-12.05223,5.82643 -13.01641,5.82643 -21.69402,-2.68912z"/>
    <path stroke="null" id="svg_22" d="m203.46923,1597.26622c-1.44627,-3.13731 -1.92836,-17.47929 -0.96418,-31.82128c1.44627,-29.13216 11.08805,-39.88865 26.997,-30.9249c10.12387,6.27462 14.46268,52.88607 5.30298,62.74618c-7.23134,8.06737 -27.96118,8.06737 -31.3358,0z"/>
    <path stroke="null" id="svg_23" d="m1164.27311,1591.43979c-6.26716,-5.37824 -3.37462,-31.37309 3.85671,-37.19952c17.35521,-12.99742 38.08505,10.75649 26.51491,30.9249c-4.82089,8.96374 -23.62237,12.99742 -30.37162,6.27462z"/>
    <path stroke="null" id="svg_24" d="m1158.97013,1528.24541c-0.96418,-1.79275 -3.37462,-11.20468 -5.30298,-21.06479c-1.92836,-9.86011 -4.3388,-21.51298 -5.30298,-25.54666c-1.44627,-4.93006 2.41045,-10.3083 10.60596,-15.23836c12.53432,-7.61918 13.01641,-7.61918 21.21193,1.79275c11.08805,12.54924 16.87312,48.4042 9.1597,57.36794c-5.78507,6.72281 -26.51491,8.51555 -30.37162,2.68912z"/>
    <path stroke="null" id="svg_25" d="m211.18266,1507.18062c-10.60596,-11.65286 1.44627,-30.02853 18.31939,-28.23578c11.57014,1.34456 13.01641,3.13731 13.01641,17.03111c0,13.44561 -1.92836,15.68655 -12.53432,17.03111c-6.74925,0.89637 -14.94477,-1.79275 -18.80148,-5.82643z"/>
    <path stroke="null" id="svg_26" d="m1136.79402,1438.15982c-7.71343,-13.8938 -5.78507,-22.85754 6.26716,-26.89122c14.46268,-4.93006 22.17611,-1.79275 25.55073,11.20468c5.78507,20.6166 -21.21193,33.61403 -31.81789,15.68655z"/>
    <path stroke="null" id="svg_27" d="m1115.5821,1387.51469c-10.12387,-13.44561 -9.64179,-20.16842 1.44627,-25.99485c13.98059,-6.72281 18.80148,-5.82643 27.96118,7.17099c7.71343,11.65286 7.71343,12.10105 -2.89254,20.16842c-14.46268,10.75649 -17.35521,10.75649 -26.51491,-1.34456z"/>
    <path stroke="null" id="svg_28" d="m254.57069,1388.41106c-5.30298,-3.13731 -5.78507,-6.72281 -1.92836,-16.58292c8.67761,-23.75391 40.4955,-14.79017 33.74625,9.86011c-3.37462,11.65286 -17.8373,15.23836 -31.81789,6.72281z"/>
    <path stroke="null" id="svg_29" d="m286.38858,1340.90324c-10.12387,-8.96374 -9.64179,-16.58292 0.96418,-25.54666c11.57014,-9.86011 16.87312,-9.41193 27.47909,1.34456c8.19552,8.06737 8.19552,9.41193 0.48209,20.16842c-9.1597,12.99742 -18.31939,14.34198 -28.92536,4.03368z"/>
    <path stroke="null" id="svg_30" d="m323.02737,1297.87728c-9.1597,-8.51555 -6.74925,-18.37567 8.67761,-35.85496c18.31939,-20.6166 31.3358,-25.09847 43.87012,-14.34198c4.82089,4.03368 9.1597,9.41193 9.1597,11.65286c0,7.17099 -40.01341,43.92233 -47.72684,43.92233c-4.3388,0 -10.60596,-2.24094 -13.98059,-5.37824z"/>
    <path stroke="null" id="svg_31" d="m1035.55528,1283.08711c-12.53432,-14.34198 6.26716,-36.30315 23.14028,-26.44303c10.12387,6.27462 13.4985,24.2021 4.82089,29.13216c-9.64179,5.82643 -21.21193,4.93006 -27.96118,-2.68912z"/>
    <path stroke="null" id="svg_32" d="m980.59711,1238.26841c-22.17611,-16.13473 -26.997,-27.33941 -16.39103,-37.19952c9.64179,-8.96374 20.24775,-6.27462 41.45968,10.75649c20.72984,16.13473 25.06864,26.89122 14.46268,36.75134c-9.1597,8.51555 -14.94477,6.72281 -39.53132,-10.3083z"/>
    <path stroke="null" id="svg_33" d="m389.55568,1231.54561c-11.57014,-20.16842 22.65819,-35.85496 35.6746,-16.58292c7.23134,10.3083 -1.44627,22.85754 -17.8373,24.65029c-8.67761,0.89637 -13.98059,-1.34456 -17.8373,-8.06737z"/>
    <path stroke="null" id="svg_34" d="m915.99715,1197.48339c-13.01641,-8.51555 -13.4985,-16.13473 -0.96418,-26.44303c8.67761,-7.61918 10.12387,-7.61918 21.69402,-0.44819c13.98059,8.51555 14.46268,10.75649 4.3388,24.2021c-8.67761,11.65286 -11.08805,12.10105 -25.06864,2.68912z"/>
    <path stroke="null" id="svg_35" d="m510.56009,1171.48854c-8.19552,-8.96374 -2.41045,-23.75391 10.12387,-27.7876c13.98059,-4.03368 32.29998,12.99742 25.06864,24.2021c-6.74925,9.86011 -27.47909,12.10105 -35.19252,3.5855z"/>
    <path stroke="null" id="svg_36" d="m858.62852,1175.07404c-9.64179,-4.03368 -7.23134,-23.30573 3.37462,-28.68397c14.94477,-7.17099 29.88953,1.79275 27.96118,17.03111c-0.96418,9.41193 -4.3388,12.10105 -13.4985,12.99742c-6.74925,0.44819 -14.94477,-0.44819 -17.8373,-1.34456z"/>
    <path stroke="null" id="svg_37" d="m568.89288,1158.93931c-8.19552,-7.61918 -7.23134,-24.65029 1.92836,-27.7876c14.94477,-5.37824 26.51491,-2.68912 30.85371,7.61918c6.74925,16.58292 -19.28357,32.71765 -32.78207,20.16842z"/>
    <path stroke="null" id="svg_38" d="m623.36897,1142.35639c-6.74925,-20.16842 12.53432,-29.58034 53.02982,-26.44303c17.35521,1.34456 19.28357,2.68912 20.72984,14.34198c2.41045,17.03111 -4.82089,20.6166 -40.97759,20.6166c-24.58655,0 -30.37162,-1.34456 -32.78207,-8.51555z"/>
    <path stroke="null" id="svg_39" d="m722.19727,1144.14914c-4.82089,-5.37824 -4.82089,-9.41193 -0.96418,-17.92748c6.26716,-12.99742 20.72984,-14.79017 31.81789,-4.03368c9.1597,8.06737 9.1597,8.96374 2.89254,20.16842c-6.26716,10.3083 -25.06864,11.20468 -33.74625,1.79275z"/>
   </g>
  </g>
 </g>

</svg>