<svg width="156" height="145" viewBox="0 0 156 145" fill="none" xmlns="http://www.w3.org/2000/svg">
<mask id="mask0" mask-type="alpha" maskUnits="userSpaceOnUse" x="8" y="0" width="139" height="140">
<path d="M91.4588 34.2142C91.4588 34.7595 91.7512 34.7867 92.9208 30.5334C94.3828 25.2168 96.6803 23.5809 98.1423 23.9898C99.3118 24.317 97.9334 26.58 97.098 27.6706C97.2651 27.9978 96.6106 30.2608 96.2625 31.3514L95.8448 34.2142V36.259C95.4967 37.2815 94.8005 39.4081 94.8005 39.7353C94.8005 40.0625 94.1044 42.5981 93.7563 43.825C93.7563 46.7697 93.1993 50.5049 92.9208 52.0045C92.712 54.1857 92.2943 58.6708 92.2943 59.1615C92.2943 59.775 92.2943 71.0218 92.2943 71.6352C92.2943 72.2487 92.712 74.0891 92.712 74.7025C92.712 75.1933 92.4335 77.0882 92.2943 77.9743V91.4704H77.2566L78.092 85.5403L78.9274 78.1788L78.092 72.4532C78.1616 71.7034 77.5072 69.7948 74.3326 68.1589C71.158 66.5231 69.2504 62.9786 68.6934 61.4109L67.4403 59.5705L56.9975 48.3237M91.4588 34.2142L90.4146 28.693V24.8078C90.0665 23.0356 89.5791 18.7959 90.4146 16.0149C91.25 13.2338 90.4842 12.8112 89.9968 12.9476C88.326 12.8112 85.1514 14.379 85.8197 21.7405L85.402 27.8751M91.4588 34.2142L92.0854 40.3488M85.402 27.8751C83.94 25.0123 81.0578 19.1231 81.2249 18.4687C81.3919 17.8143 80.5983 15.7422 80.1806 14.7879C80.1806 12.8794 79.8046 9.38948 78.3009 10.6982C76.4211 12.3341 75.5857 14.9924 77.2566 19.9001C77.3958 21.6723 77.8831 25.5439 78.7186 26.8526C78.7186 27.3979 79.0945 29.9199 80.5983 35.6456M85.402 27.8751L88.9526 36.668M80.5983 35.6456C79.4148 34.7595 76.7553 32.8645 75.5857 32.3738C75.2376 31.6921 73.8731 30.5743 71.1997 31.5558C67.858 32.7827 64.0986 33.3962 63.472 34.0097C62.9708 34.5004 59.7822 37.7586 58.2506 39.3263M80.5983 35.6456L85.8197 39.7353M58.2506 39.3263C57.2759 38.9173 55.7443 39.3263 57.4152 44.234L56.9975 48.3237M58.2506 39.3263C59.1557 39.6671 61.0075 40.5123 61.1746 41.1667M56.9975 48.3237C57.4848 48.1192 58.543 47.4649 58.8772 46.4834M61.1746 41.1667C61.4531 41.5075 62.0518 42.3936 62.2189 43.2116M61.1746 41.1667C63.6809 40.5123 65.8391 38.7129 66.6049 37.8949M62.2189 43.2116C62.6366 43.6887 63.472 44.8884 63.472 45.8699M62.2189 43.2116C61.2164 43.3752 61.105 43.2797 61.1746 43.2116M63.472 45.8699C64.4467 46.4152 66.6049 47.8739 67.4403 49.3462C68.4846 51.1865 75.168 48.7327 76.8389 46.2789C76.9085 45.8699 77.2148 45.0928 77.8831 45.2564C77.4654 44.7111 76.9224 43.4161 78.092 42.5981C77.3958 42.5981 76.1705 42.1482 76.8389 40.3488C75.7946 40.6214 73.3301 40.3488 71.8263 37.077M63.472 45.8699L62.4277 46.4834M71.8263 37.077C71.4782 37.6223 69.9466 38.5493 66.6049 37.8949M71.8263 37.077L72.0352 34.4186M66.6049 37.8949C66.0479 37.1451 64.9758 35.5229 65.1429 35.0321" stroke="black" stroke-width="2" stroke-linecap="round" stroke-linejoin="round"/>
<path d="M127.318 50.9412C127.318 77.9706 105.073 99.8824 77.6326 99.8824C50.1924 99.8824 27.9478 77.9706 27.9478 50.9412C27.9478 23.9117 50.1924 2 77.6326 2C105.073 2 127.318 23.9117 127.318 50.9412Z" stroke="black" stroke-width="4" stroke-miterlimit="16" stroke-linecap="round" stroke-dasharray="0.2 6 4 6 0.2 6 0.2 14"/>
<path d="M14.5503 135.299C13.2223 135.299 12.0703 135.091 11.0943 134.675C10.1343 134.259 9.3983 133.715 8.8863 133.043C8.3743 132.355 8.1023 131.619 8.0703 130.835C8.0703 130.707 8.1183 130.595 8.2143 130.499C8.3263 130.387 8.4543 130.331 8.5983 130.331H9.8223C10.1263 130.331 10.3343 130.491 10.4463 130.811C10.5903 131.483 10.9983 132.059 11.6703 132.539C12.3583 133.019 13.3183 133.259 14.5503 133.259C15.8783 133.259 16.8783 133.027 17.5503 132.563C18.2223 132.083 18.5583 131.419 18.5583 130.571C18.5583 130.027 18.3903 129.587 18.0543 129.251C17.7343 128.915 17.2543 128.619 16.6143 128.363C15.9743 128.107 15.0143 127.787 13.7343 127.403C12.4863 127.051 11.4943 126.675 10.7583 126.275C10.0223 125.875 9.4703 125.379 9.1023 124.787C8.7343 124.195 8.5503 123.451 8.5503 122.555C8.5503 121.691 8.7823 120.915 9.2463 120.227C9.7263 119.539 10.4063 119.003 11.2863 118.619C12.1663 118.219 13.2143 118.019 14.4303 118.019C15.6783 118.019 16.7503 118.243 17.6463 118.691C18.5423 119.123 19.2223 119.675 19.6863 120.347C20.1503 121.019 20.3983 121.691 20.4303 122.363C20.4303 122.491 20.3823 122.603 20.2863 122.699C20.2063 122.795 20.0863 122.843 19.9263 122.843H18.6543C18.3183 122.843 18.1103 122.691 18.0303 122.387C17.9343 121.715 17.5583 121.163 16.9023 120.731C16.2463 120.283 15.4223 120.059 14.4303 120.059C13.3423 120.059 12.4863 120.267 11.8623 120.683C11.2383 121.099 10.9263 121.715 10.9263 122.531C10.9263 123.075 11.0703 123.523 11.3583 123.875C11.6623 124.227 12.1183 124.539 12.7263 124.811C13.3343 125.067 14.2223 125.363 15.3903 125.699C16.7503 126.067 17.8223 126.451 18.6063 126.851C19.3903 127.235 19.9743 127.723 20.3583 128.315C20.7423 128.891 20.9343 129.627 20.9343 130.523C20.9343 132.011 20.3583 133.179 19.2063 134.027C18.0543 134.875 16.5023 135.299 14.5503 135.299ZM25.9286 139.619C25.8006 139.619 25.6886 139.571 25.5926 139.475C25.4966 139.379 25.4486 139.267 25.4486 139.139C25.4486 139.027 25.4886 138.883 25.5686 138.707L27.4166 134.315L22.8326 123.491C22.7526 123.283 22.7126 123.147 22.7126 123.083C22.7126 122.939 22.7606 122.819 22.8566 122.723C22.9526 122.627 23.0726 122.579 23.2166 122.579H24.3926C24.6486 122.579 24.8406 122.715 24.9686 122.987L28.6166 131.723L32.3606 122.987C32.4886 122.715 32.6886 122.579 32.9606 122.579H34.0886C34.2326 122.579 34.3526 122.627 34.4486 122.723C34.5446 122.819 34.5926 122.931 34.5926 123.059C34.5926 123.107 34.5526 123.251 34.4726 123.491L27.6566 139.211C27.5286 139.483 27.3286 139.619 27.0566 139.619H25.9286ZM37.5387 135.059C37.3787 135.059 37.2427 135.011 37.1307 134.915C37.0347 134.803 36.9867 134.667 36.9867 134.507V123.131C36.9867 122.971 37.0347 122.843 37.1307 122.747C37.2427 122.635 37.3787 122.579 37.5387 122.579H38.6187C38.7787 122.579 38.9067 122.635 39.0027 122.747C39.1147 122.843 39.1707 122.971 39.1707 123.131V123.971C40.0027 122.883 41.1627 122.339 42.6507 122.339C44.4267 122.339 45.6827 123.075 46.4187 124.547C46.8027 123.875 47.3467 123.339 48.0507 122.939C48.7547 122.539 49.5467 122.339 50.4267 122.339C51.7387 122.339 52.8107 122.787 53.6427 123.683C54.4747 124.579 54.8907 125.875 54.8907 127.571V134.507C54.8907 134.667 54.8347 134.803 54.7227 134.915C54.6267 135.011 54.4987 135.059 54.3387 135.059H53.2107C53.0507 135.059 52.9147 135.011 52.8027 134.915C52.7067 134.803 52.6587 134.667 52.6587 134.507V127.787C52.6587 126.539 52.3947 125.643 51.8667 125.099C51.3547 124.555 50.6747 124.283 49.8267 124.283C49.0747 124.283 48.4267 124.563 47.8827 125.123C47.3387 125.667 47.0667 126.555 47.0667 127.787V134.507C47.0667 134.667 47.0107 134.803 46.8987 134.915C46.8027 135.011 46.6747 135.059 46.5147 135.059H45.3867C45.2267 135.059 45.0907 135.011 44.9787 134.915C44.8827 134.803 44.8347 134.667 44.8347 134.507V127.787C44.8347 126.539 44.5627 125.643 44.0187 125.099C43.4907 124.555 42.8187 124.283 42.0027 124.283C41.2507 124.283 40.6027 124.563 40.0587 125.123C39.5147 125.667 39.2427 126.547 39.2427 127.763V134.507C39.2427 134.667 39.1867 134.803 39.0747 134.915C38.9787 135.011 38.8507 135.059 38.6907 135.059H37.5387ZM64.4829 135.299C62.7549 135.299 61.4429 134.699 60.5469 133.499V134.507C60.5469 134.667 60.4909 134.803 60.3789 134.915C60.2829 135.011 60.1549 135.059 59.9949 135.059H58.8909C58.7309 135.059 58.5949 135.011 58.4829 134.915C58.3869 134.803 58.3389 134.667 58.3389 134.507V118.571C58.3389 118.411 58.3869 118.283 58.4829 118.187C58.5949 118.075 58.7309 118.019 58.8909 118.019H60.0669C60.2269 118.019 60.3549 118.075 60.4509 118.187C60.5469 118.283 60.5949 118.411 60.5949 118.571V124.091C61.5389 122.923 62.8349 122.339 64.4829 122.339C66.1469 122.339 67.4029 122.891 68.2509 123.995C69.0989 125.083 69.5549 126.451 69.6189 128.099C69.6349 128.275 69.6429 128.515 69.6429 128.819C69.6429 129.123 69.6349 129.363 69.6189 129.539C69.5549 131.203 69.0989 132.579 68.2509 133.667C67.4029 134.755 66.1469 135.299 64.4829 135.299ZM63.9789 133.355C65.1149 133.355 65.9389 133.003 66.4509 132.299C66.9789 131.595 67.2669 130.667 67.3149 129.515C67.3309 129.355 67.3389 129.123 67.3389 128.819C67.3389 125.795 66.2189 124.283 63.9789 124.283C62.9069 124.283 62.0829 124.635 61.5069 125.339C60.9309 126.043 60.6269 126.867 60.5949 127.811L60.5709 128.747L60.5949 129.659C60.6429 130.667 60.9389 131.539 61.4829 132.275C62.0429 132.995 62.8749 133.355 63.9789 133.355ZM77.7003 135.299C75.9403 135.299 74.5723 134.803 73.5963 133.811C72.6363 132.819 72.1243 131.499 72.0603 129.851L72.0363 128.819L72.0603 127.787C72.1243 126.155 72.6443 124.843 73.6203 123.851C74.5963 122.843 75.9563 122.339 77.7003 122.339C79.4443 122.339 80.8043 122.843 81.7803 123.851C82.7563 124.843 83.2763 126.155 83.3403 127.787C83.3563 127.963 83.3643 128.307 83.3643 128.819C83.3643 129.331 83.3563 129.675 83.3403 129.851C83.2763 131.499 82.7563 132.819 81.7803 133.811C80.8203 134.803 79.4603 135.299 77.7003 135.299ZM77.7003 133.451C78.7083 133.451 79.5003 133.131 80.0763 132.491C80.6683 131.851 80.9883 130.931 81.0363 129.731C81.0523 129.571 81.0603 129.267 81.0603 128.819C81.0603 128.371 81.0523 128.067 81.0363 127.907C80.9883 126.707 80.6683 125.787 80.0763 125.147C79.5003 124.507 78.7083 124.187 77.7003 124.187C76.6923 124.187 75.8923 124.507 75.3003 125.147C74.7083 125.787 74.3963 126.707 74.3643 127.907L74.3403 128.819L74.3643 129.731C74.3963 130.931 74.7083 131.851 75.3003 132.491C75.8923 133.131 76.6923 133.451 77.7003 133.451ZM87.2336 135.059C87.0736 135.059 86.9376 135.011 86.8256 134.915C86.7296 134.803 86.6816 134.667 86.6816 134.507V118.811C86.6816 118.651 86.7296 118.523 86.8256 118.427C86.9376 118.315 87.0736 118.259 87.2336 118.259H88.5056C88.6656 118.259 88.7936 118.315 88.8896 118.427C89.0016 118.523 89.0576 118.651 89.0576 118.811V132.971H97.0256C97.2016 132.971 97.3376 133.027 97.4336 133.139C97.5456 133.235 97.6016 133.371 97.6016 133.547V134.507C97.6016 134.667 97.5456 134.803 97.4336 134.915C97.3216 135.011 97.1856 135.059 97.0256 135.059H87.2336ZM104.627 135.299C102.979 135.299 101.659 134.795 100.667 133.787C99.6912 132.763 99.1552 131.371 99.0592 129.611L99.0352 128.795L99.0592 128.003C99.1712 126.275 99.7152 124.899 100.691 123.875C101.683 122.851 102.987 122.339 104.603 122.339C106.379 122.339 107.755 122.907 108.731 124.043C109.707 125.163 110.195 126.683 110.195 128.603V129.011C110.195 129.171 110.139 129.307 110.027 129.419C109.931 129.515 109.803 129.563 109.643 129.563H101.339V129.779C101.387 130.819 101.699 131.707 102.275 132.443C102.867 133.163 103.643 133.523 104.603 133.523C105.339 133.523 105.939 133.379 106.403 133.091C106.883 132.787 107.235 132.475 107.459 132.155C107.603 131.963 107.707 131.851 107.771 131.819C107.851 131.771 107.987 131.747 108.179 131.747H109.355C109.499 131.747 109.619 131.787 109.715 131.867C109.811 131.947 109.859 132.059 109.859 132.203C109.859 132.555 109.635 132.979 109.187 133.475C108.755 133.971 108.139 134.403 107.339 134.771C106.555 135.123 105.651 135.299 104.627 135.299ZM107.915 127.907V127.835C107.915 126.731 107.611 125.835 107.003 125.147C106.411 124.443 105.611 124.091 104.603 124.091C103.595 124.091 102.795 124.443 102.203 125.147C101.627 125.835 101.339 126.731 101.339 127.835V127.907H107.915ZM116.545 135.299C115.761 135.299 115.033 135.139 114.361 134.819C113.689 134.499 113.153 134.067 112.753 133.523C112.369 132.963 112.177 132.347 112.177 131.675C112.177 130.619 112.609 129.755 113.473 129.083C114.353 128.395 115.537 127.947 117.025 127.739L120.601 127.235V126.539C120.601 124.907 119.665 124.091 117.793 124.091C117.089 124.091 116.513 124.243 116.065 124.547C115.617 124.835 115.281 125.179 115.057 125.579C115.009 125.723 114.945 125.827 114.865 125.891C114.801 125.955 114.705 125.987 114.577 125.987H113.545C113.401 125.987 113.273 125.939 113.161 125.843C113.065 125.731 113.017 125.603 113.017 125.459C113.033 125.075 113.209 124.643 113.545 124.163C113.897 123.667 114.433 123.243 115.153 122.891C115.873 122.523 116.761 122.339 117.817 122.339C119.609 122.339 120.897 122.763 121.681 123.611C122.465 124.443 122.857 125.483 122.857 126.731V134.507C122.857 134.667 122.801 134.803 122.689 134.915C122.593 135.011 122.465 135.059 122.305 135.059H121.201C121.041 135.059 120.905 135.011 120.793 134.915C120.697 134.803 120.649 134.667 120.649 134.507V133.475C120.297 133.987 119.785 134.419 119.113 134.771C118.441 135.123 117.585 135.299 116.545 135.299ZM117.049 133.499C118.089 133.499 118.937 133.163 119.593 132.491C120.265 131.803 120.601 130.819 120.601 129.539V128.867L117.817 129.275C116.681 129.435 115.825 129.707 115.249 130.091C114.673 130.459 114.385 130.931 114.385 131.507C114.385 132.147 114.649 132.643 115.177 132.995C115.705 133.331 116.329 133.499 117.049 133.499ZM126.859 135.059C126.699 135.059 126.563 135.011 126.451 134.915C126.355 134.803 126.307 134.667 126.307 134.507V123.155C126.307 122.995 126.355 122.859 126.451 122.747C126.563 122.635 126.699 122.579 126.859 122.579H127.963C128.123 122.579 128.259 122.635 128.371 122.747C128.483 122.859 128.539 122.995 128.539 123.155V124.211C129.195 123.123 130.315 122.579 131.899 122.579H132.835C132.995 122.579 133.123 122.635 133.219 122.747C133.331 122.843 133.387 122.971 133.387 123.131V124.115C133.387 124.275 133.331 124.403 133.219 124.499C133.123 124.595 132.995 124.643 132.835 124.643H131.395C130.531 124.643 129.851 124.899 129.355 125.411C128.859 125.907 128.611 126.587 128.611 127.451V134.507C128.611 134.667 128.555 134.803 128.443 134.915C128.331 135.011 128.195 135.059 128.035 135.059H126.859ZM135.976 135.059C135.816 135.059 135.68 135.011 135.568 134.915C135.472 134.803 135.424 134.667 135.424 134.507V123.131C135.424 122.971 135.472 122.843 135.568 122.747C135.68 122.635 135.816 122.579 135.976 122.579H137.104C137.264 122.579 137.392 122.635 137.488 122.747C137.6 122.843 137.656 122.971 137.656 123.131V124.187C138.12 123.595 138.664 123.139 139.288 122.819C139.928 122.499 140.72 122.339 141.664 122.339C143.2 122.339 144.392 122.835 145.24 123.827C146.104 124.803 146.536 126.107 146.536 127.739V134.507C146.536 134.667 146.48 134.803 146.368 134.915C146.272 135.011 146.144 135.059 145.984 135.059H144.784C144.624 135.059 144.488 135.011 144.376 134.915C144.28 134.803 144.232 134.667 144.232 134.507V127.859C144.232 126.723 143.952 125.843 143.392 125.219C142.848 124.595 142.056 124.283 141.016 124.283C140.008 124.283 139.208 124.603 138.616 125.243C138.024 125.867 137.728 126.739 137.728 127.859V134.507C137.728 134.667 137.672 134.803 137.56 134.915C137.464 135.011 137.336 135.059 137.176 135.059H135.976Z" fill="black"/>
</mask>
<g mask="url(#mask0)">
<rect y="-7.94141" width="155.265" height="152.941" fill="url(#paint0_linear)"/>
</g>
<defs>
<linearGradient id="paint0_linear" x1="34.9347" y1="97.9704" x2="192.35" y2="-21.6901" gradientUnits="userSpaceOnUse">
<stop class="start" stop-color="white"/>
<stop class="stop" offset="1" stop-color="#5AD4EF"/>
</linearGradient>
</defs>
</svg>
